<mxfile host="app.diagrams.net" modified="2023-06-05T22:59:37.309Z" agent="Mozilla/5.0 (X11; Linux x86_64) AppleWebKit/537.36 (KHTML, like Gecko) Chrome/113.0.0.0 Safari/537.36" version="21.3.6" etag="-kgQ3D1WxqrM3LMzdAna" type="github">
  <diagram name="Pagina-1" id="oYbloxI2_u6-7OM8IWwa">
    <mxGraphModel>
      <root>
        <mxCell id="0" />
        <mxCell id="1" parent="0" />
      </root>
    </mxGraphModel>
  </diagram>
</mxfile>
